<svg width="250" height="250" viewBox="0 0 250 250" fill="none" xmlns="http://www.w3.org/2000/svg">
<rect width="250" height="250" rx="121" fill="black"/>
<path d="M190.054 82.8473C191.792 81.3429 193.534 80.5865 195.279 80.578C197.274 80.5684 199.085 81.37 200.714 82.9829L203.344 85.4012C205.097 87.0134 205.978 88.8169 205.988 90.8115C205.997 92.6815 205.132 94.431 203.395 96.0601L125.947 167.681C124.085 169.311 122.344 170.13 120.723 170.138C118.978 170.146 117.228 169.219 115.474 167.358L48.3746 96.9945C46.7462 95.3817 45.9277 93.7026 45.9193 91.9573C45.9103 90.0873 46.8363 88.2129 48.6972 86.3339L50.9313 84.2661C52.5441 82.6376 54.2855 81.8189 56.1555 81.8098C58.1502 81.8002 59.962 82.6642 61.5911 84.4017L115.344 140.43C117.098 142.292 118.91 143.218 120.78 143.209C122.526 143.201 124.205 142.444 125.818 140.941L190.054 82.8473Z" fill="white"/>
</svg>
